<?xml version="1.0" encoding="UTF-8"?>
<!DOCTYPE svg PUBLIC "-//W3C//DTD SVG 1.0//EN" "http://www.w3.org/TR/2001/REC-SVG-20010904/DTD/svg10.dtd">
<!-- Creator: CorelDRAW X8 -->
<svg xmlns="http://www.w3.org/2000/svg" xml:space="preserve" width="41px" height="53px" version="1.0" style="shape-rendering:geometricPrecision; text-rendering:geometricPrecision; image-rendering:optimizeQuality; fill-rule:evenodd; clip-rule:evenodd"
viewBox="0 0 317 407"
 xmlns:xlink="http://www.w3.org/1999/xlink">
 <defs>
  <style type="text/css">
   <![CDATA[
    .fil0 {fill:black}
    .fil1 {fill:#ED3237}
    .fil2 {fill:#FAA831}
    .fil3 {fill:black;fill-rule:nonzero}
   ]]>
  </style>
 </defs>
 <g id="Layer_x0020_1">
  <metadata id="CorelCorpID_0Corel-Layer"/>
  <g id="_2061533777504">
   <path class="fil0" d="M55 405c-1,-1 -2,-2 -3,-3 0,-8 1,-17 1,-25 0,-7 -1,-14 -1,-21 1,-1 2,-2 3,-3 9,0 18,0 27,0 7,1 16,4 18,11 0,1 0,2 0,3 -2,6 -7,9 -13,10 0,0 0,0 0,0 5,1 10,3 13,6 1,1 1,2 2,3 0,1 0,2 1,3 0,1 0,2 0,3 -1,10 -12,11 -20,13 -9,0 -19,0 -28,0zm54 2c-2,-2 -3,-5 -5,-7 8,-11 16,-22 24,-33 -2,-3 -4,-5 -5,-7 3,-2 13,-10 14,-9 6,8 11,16 16,24 6,8 11,15 17,23 -5,3 -10,6 -15,9 -7,-11 -15,-22 -22,-33 -3,4 -6,8 -9,12 -5,7 -10,14 -15,21zm67 -2c-1,-1 -2,-2 -3,-2 0,-8 1,-16 1,-24 0,-8 -1,-16 -1,-24 1,0 2,-1 3,-2 9,0 18,0 27,0 1,1 3,1 4,1 8,3 12,7 13,14 0,5 -1,8 -4,11 -3,3 -8,5 -12,6 -5,1 -9,1 -14,2 1,6 1,12 2,18 -5,0 -10,0 -16,0zm14 -22c0,-9 0,-17 0,-26 5,1 10,2 13,7 0,1 1,2 1,3 0,2 1,5 0,7 -2,5 -7,7 -11,8 -1,0 -2,1 -3,1zm36 22c-1,-1 -2,-2 -3,-3 3,-1 6,-2 8,-4 1,-1 1,-1 1,-2 0,-1 0,-2 0,-3 -1,-6 -4,-12 -7,-18 0,-2 -1,-3 -1,-5 0,-1 0,-3 0,-4 0,-4 1,-6 4,-9 5,-3 11,-5 16,-5 1,1 2,2 3,3 -3,1 -5,1 -8,4 0,0 0,1 -1,1 0,3 0,6 1,8 2,5 4,10 6,15 1,4 1,7 1,10 -1,2 -2,3 -2,4 -1,1 -2,2 -3,3 -3,1 -6,2 -8,4 -3,0 -5,1 -7,1zm-158 -28c1,-7 1,-13 1,-20 5,1 10,1 14,6 0,1 0,2 1,3 0,1 0,2 0,3 -1,6 -10,8 -16,8zm1 23c0,-6 0,-13 0,-19 6,0 15,1 17,8 3,10 -11,11 -17,11z"/>
   <path class="fil1" d="M131 404c-5,-1 -8,-4 -8,-9 1,-6 8,-9 13,-7 3,2 4,3 5,7 0,0 0,1 0,1 0,6 -5,8 -10,8z"/>
   <path class="fil1" d="M61 321c-1,-3 -4,-5 -5,-7 -1,-3 -3,-5 -4,-7 0,-1 0,-1 0,-2 0,-1 1,-1 2,-1 0,0 1,1 2,1 0,-2 0,-5 0,-7 -2,0 -5,-1 -7,-1 -1,-1 -2,-2 -3,-4 20,0 39,0 58,0 -1,-2 -2,-5 0,-8 1,0 1,-1 2,-1 1,-1 1,-1 2,-1 5,0 8,2 12,5 0,0 4,3 2,4 -3,-3 -10,-7 -14,-4 0,0 -1,1 -1,2 0,1 0,2 0,3 47,0 95,0 143,1 1,1 1,2 2,4 -2,0 -4,0 -6,0 0,7 0,14 0,21 -1,-1 -3,-2 -4,-3 0,-6 0,-12 0,-18 -2,0 -4,0 -6,0 0,4 0,8 0,13 -1,1 -2,2 -3,2 0,1 -1,1 -2,1 -3,0 -6,-1 -8,-4 0,-1 -1,-2 -1,-3 -1,-3 -1,-6 -1,-9 -1,0 -3,0 -5,0 0,7 0,14 0,21 -2,-1 -3,-2 -5,-3 0,-1 0,-3 0,-4 -4,2 -7,3 -11,0 -1,-2 -5,-6 -4,-9 2,0 4,-1 6,-2 0,-1 0,-2 -1,-3 -3,0 -7,0 -10,0 -1,7 -1,14 -1,21 -1,-1 -2,-2 -4,-3 0,-6 0,-12 0,-18 -2,0 -5,0 -7,0 -1,3 -1,6 -1,9 0,1 -2,3 -2,4 1,2 3,5 6,6 -1,1 -1,2 -2,2 -3,-3 -6,-7 -9,-11 0,-1 -2,-2 -2,-3 1,-1 1,-1 1,-1 0,0 1,0 1,0 1,0 3,1 3,1 0,-3 0,-5 0,-7 -3,0 -7,0 -10,0 0,7 0,14 0,21 -1,-1 -3,-2 -4,-3 0,-6 0,-12 0,-18 -2,0 -4,0 -6,0 0,7 0,14 0,21 -1,-1 -3,-2 -4,-3 0,-3 0,-7 0,-10 -2,0 -4,0 -6,0 -1,1 -1,2 -1,3 0,1 -1,1 -2,1 -2,-2 -4,-4 -4,-7 0,-1 0,-1 1,-1 4,0 7,0 11,0 0,-2 1,-3 1,-4 -6,0 -12,0 -17,0 -1,7 -1,14 -1,21 -1,-1 -3,-2 -4,-3 0,-2 0,-4 0,-6 -2,0 -5,0 -7,0 0,1 -1,2 -1,3 -2,2 -6,-3 -6,-5 0,-2 0,-2 2,-2 0,-3 0,-6 0,-8 -3,0 -5,0 -8,0 0,7 0,14 0,21 -2,-1 -3,-2 -5,-3 0,-6 0,-12 0,-18 -2,0 -4,0 -6,0 0,7 0,14 0,21 -2,-1 -3,-2 -4,-3 0,-6 0,-12 0,-18 -2,0 -4,0 -6,0 0,7 0,14 0,21 -2,-1 -3,-2 -4,-3 0,-1 -1,-3 -1,-4 -1,1 -2,1 -3,2 -1,0 -2,0 -4,1 -3,-1 -5,-3 -7,-5 -1,0 -2,0 -3,1 -1,-1 -2,-1 -3,-1 0,-1 -1,-1 -2,-2 -1,1 -2,2 -3,4 2,2 4,4 6,7 0,0 -1,1 -2,2zm12 -10c-2,-1 -1,-1 -2,-3 2,-6 8,-4 11,-2 0,1 0,1 0,1 -2,2 -5,4 -9,4zm-10 -5c-1,0 -2,0 -3,0 0,-3 0,-6 0,-8 8,0 15,0 23,0 -1,2 -1,4 -1,6 -1,-1 -2,-2 -4,-4 -4,0 -8,0 -10,4 0,0 -1,1 -1,2 -1,0 -3,0 -4,0zm57 0c0,-2 0,-5 0,-8 3,0 5,0 8,0 0,2 0,5 0,8 -2,0 -5,0 -8,0zm82 4c-2,-1 -2,-2 -1,-4 1,0 4,-1 5,-2 0,-2 -2,-4 -2,-6 3,0 5,0 7,0 0,3 0,6 0,9 0,0 -1,0 -2,1 -1,0 -3,1 -4,2 -1,0 -2,0 -3,0zm26 0c-1,0 -2,0 -2,-1 0,-4 0,-8 0,-11 2,0 4,0 5,0 0,3 0,6 0,9 0,3 -1,3 -3,3z"/>
   <path class="fil2" d="M146 281c-3,0 -6,-1 -9,-1 -3,-1 -5,-2 -8,-3 -3,-2 -7,-4 -11,-7 -2,-2 -5,-4 -7,-7 -2,-3 -4,-7 -6,-11 -2,-5 -4,-9 -4,-15 -1,-38 -1,-76 -1,-115 2,0 4,0 7,0 0,39 0,77 1,116 1,6 3,11 6,16 1,3 3,5 5,7 4,4 8,7 13,9 2,1 3,2 5,2 2,1 4,1 6,2 2,0 5,0 9,0 4,0 9,-2 14,-3 5,-3 10,-6 14,-10 1,-2 2,-3 3,-4 2,-2 3,-4 4,-6 2,-5 3,-9 4,-14 0,-38 0,-76 1,-114 2,0 4,0 6,0 0,37 0,75 0,112 -1,13 -6,24 -15,33 -1,1 -2,2 -3,3 -2,1 -4,2 -5,3 -8,4 -16,6 -25,7 -1,0 -3,0 -4,0z"/>
   <path class="fil1" d="M147 229c-13,-2 -23,-8 -29,-19 -1,-3 -2,-6 -3,-9 -1,-4 -1,-8 -1,-13 2,-8 6,-15 13,-21 3,-2 6,-4 9,-5 2,-1 3,-1 5,-2 5,-1 9,-1 14,0 8,1 15,5 20,11 1,1 2,2 3,3 3,5 4,10 5,16 0,1 0,3 1,4 -1,1 -1,3 -1,5 -2,13 -11,23 -23,28 -2,0 -4,1 -5,1 -3,0 -6,1 -8,1z"/>
   <path class="fil0" d="M45 337c-4,0 -9,0 -13,-1 0,0 0,0 0,0 -6,-1 -3,-9 3,-8 0,-19 0,-39 0,-58 0,-2 1,-3 2,-4 0,0 0,-1 0,-1 0,-1 0,-2 1,-3 -3,-2 -1,-5 2,-7 1,0 2,0 3,0 4,0 6,2 6,6 0,0 0,1 0,2 0,0 0,0 0,1 0,2 -1,2 0,3 1,2 1,3 1,5 1,0 2,0 2,0 1,-15 2,-29 3,-43 -3,-2 -4,-4 -2,-7 0,-2 -1,-5 -1,-7 -1,0 -2,0 -2,0 0,-4 0,-8 0,-12 -2,-1 -3,-2 -4,-3 -1,-1 -2,-3 -3,-4 0,-2 -1,-5 -1,-7 -2,0 -4,-1 -5,-3 0,-1 0,-1 0,-1 -3,-2 -3,-3 -3,-5 -2,-2 -2,-2 -2,-5 -3,-2 -6,-4 -7,-7 0,-2 -1,-3 -1,-5 -2,0 -4,1 -5,2 -4,-5 -5,-10 -5,-15 1,-3 1,-5 2,-7 -1,-2 -1,-4 -2,-5 0,-2 0,-5 -1,-7 1,-1 1,-3 1,-5 -4,0 -9,0 -14,-1 0,-4 0,-8 0,-13 3,0 5,0 8,1 0,-1 0,-2 1,-2 2,-2 0,-4 1,-6 0,-2 1,-3 2,-5 1,-1 1,-2 2,-4 0,0 1,0 1,0 2,4 8,9 4,14 0,1 1,2 1,3 3,-2 5,-4 8,-6 4,-4 10,-7 16,-8 0,-2 0,-4 0,-6 4,-1 6,1 9,2 2,-1 0,-1 0,-3 0,-1 0,-3 0,-4 2,-3 4,-5 5,-8 0,0 1,0 1,0 1,3 3,6 4,9 0,1 0,2 1,4 -1,0 -1,1 -2,2 1,1 2,2 2,3 6,-1 12,-2 18,-4 6,-5 13,-10 20,-15 7,-4 15,-8 22,-12 2,-1 4,-2 7,-3 -2,-3 -1,-5 2,-6 1,-1 3,-2 4,-2 -3,-19 -7,-37 -11,-55 0,0 0,0 0,-1 1,0 2,0 3,0 0,1 0,2 1,3 0,0 0,0 0,0 4,-2 8,-2 12,-2 12,1 21,10 33,10 2,-1 5,-2 6,-3 0,3 -2,6 -4,8 -4,2 -9,3 -13,3 1,2 4,2 6,2 2,0 3,-1 4,-1 1,0 3,-2 4,-2 0,1 -1,2 -1,3 -1,1 -3,3 -4,4 -3,1 -6,2 -9,3 -2,0 -4,0 -6,0 0,1 0,1 0,2 0,2 -1,3 -2,4 0,1 0,2 1,2 0,1 0,1 0,2 2,1 3,4 4,6 0,3 -1,4 -3,6 -1,0 -2,0 -2,1 0,0 0,0 0,0 0,2 4,3 5,5 1,1 3,1 4,2 2,1 5,4 2,6 4,2 9,4 13,6 12,6 24,15 36,23 1,0 2,1 3,2 5,1 10,3 15,2 1,-1 1,-2 2,-2 -2,-4 -1,-6 1,-9 1,-2 2,-4 3,-6 2,3 6,7 6,12 -1,1 -1,1 -2,2 0,1 1,1 1,1 1,0 2,-1 4,-2 0,0 2,-1 3,-1 1,0 2,0 3,0 0,3 0,5 0,7 2,0 4,1 6,1 3,2 6,4 9,5 2,2 5,5 8,7 0,0 2,-2 2,-3 -1,0 -1,-1 -2,-2 0,-2 1,-4 2,-5 1,-2 3,-4 4,-6 2,3 4,6 5,9 0,0 0,1 0,2 0,1 0,1 0,2 0,1 1,2 2,3 3,0 5,0 8,0 0,4 -1,8 -1,13 -1,0 -13,0 -14,1 1,4 1,9 0,13 0,1 -1,3 -1,4 1,2 1,4 2,6 0,2 0,5 -1,7 0,1 -1,3 -1,4 -1,1 -2,3 -3,4 -2,-1 -3,-1 -5,-1 -1,1 -1,2 -1,4 -1,3 -4,6 -7,8 0,2 -1,3 -2,5 0,1 0,2 -1,3 0,0 -1,1 -1,1 -1,2 -2,4 -4,5 -1,0 -2,0 -2,0 -1,4 -1,8 -4,11 -1,1 -2,1 -3,2 0,4 -1,8 -1,13 0,0 -1,0 -2,0 0,2 -1,4 -1,7 1,2 1,5 -2,6 1,15 2,29 3,43 1,0 1,0 2,0 0,-2 0,-3 2,-5 -1,0 -1,-1 -1,-1 0,-1 0,-1 1,-3 -3,-4 0,-7 4,-8 1,0 2,1 3,1 3,0 5,3 4,6 0,0 0,1 -1,1 1,1 1,1 1,1 0,1 0,2 0,3 1,1 2,2 2,4 0,10 0,20 0,30 0,0 0,0 0,0 0,0 0,0 1,0 0,9 0,18 0,27 4,1 5,1 6,6 -1,1 -1,2 -2,3 -2,0 -4,0 -5,0 -73,0 -146,1 -219,1zm204 -217c0,-2 2,-5 3,-7 1,-1 2,-2 3,-3 0,-3 0,-5 0,-8 4,0 9,3 13,5 2,2 5,5 7,7 -9,1 -18,3 -26,6zm-111 -78c-1,-6 -3,-11 -4,-17 3,0 5,0 8,0 -1,1 -1,2 -2,3 0,1 0,2 0,3 1,0 1,1 1,2 0,0 1,1 1,2 -1,1 -1,2 -1,3 -1,1 -2,3 -3,4zm-99 226c0,0 0,0 0,0 0,-1 1,-2 2,-2 -1,-1 -1,-2 -1,-3 0,0 0,0 1,-1 -1,0 -1,-1 -2,-1 0,-3 3,-4 5,-4 2,1 3,2 3,4 -1,0 -1,1 -1,1 0,1 0,1 0,1 0,0 0,1 0,2 0,0 0,1 -1,1 1,1 1,1 2,2 -3,0 -5,0 -8,0zm-1 4c0,-1 0,-1 0,-2 3,0 6,0 10,0 0,1 0,1 0,2 -4,0 -7,0 -10,0zm215 -4c0,-1 0,-1 0,-2 1,0 1,0 1,-1 0,0 -1,0 -1,-1 0,-1 0,-1 1,-2 -1,-1 -2,-2 -1,-4 1,-1 2,-1 3,-1 2,0 4,1 4,4 -1,0 -1,1 -1,2 1,0 0,2 -1,2 1,1 2,2 3,3 -3,0 -6,0 -8,0zm3 4c-1,0 -3,0 -5,0 0,-1 0,-2 0,-2 4,0 7,0 11,0 0,1 0,1 0,2 -2,0 -4,0 -6,0zm-208 62c-5,0 -10,0 -15,0 -1,-1 -1,-1 -1,-2 0,-1 0,-1 0,-1 79,0 157,0 235,0 1,0 1,1 0,2 -1,0 -1,0 -2,1 -72,0 -145,0 -217,0zm192 -241c-2,-1 -3,-2 -2,-5 1,-1 1,-2 2,-3 0,0 0,0 0,0 1,1 2,3 3,5 -1,2 -1,3 -3,3zm-1 5c0,0 -1,0 -1,0 0,-1 0,-2 1,-3 1,0 5,0 4,3 -2,0 -3,0 -4,0zm44 10c-2,-1 -2,-2 -1,-5 1,-1 1,-2 2,-2 0,0 0,0 1,1 1,3 3,5 -2,6zm-1 5c-1,-1 -1,-1 -1,-1 1,-1 1,-1 1,-1 2,0 3,-1 4,-1 1,1 1,2 2,2 -2,0 -4,0 -6,1zm-35 14c-1,0 -1,0 -1,-1 1,0 1,-1 1,-2 15,-6 30,-9 45,-10 -1,1 -2,2 -4,3 -3,0 -6,1 -10,1 -4,1 -9,2 -13,3 -3,0 -5,1 -8,2 -3,1 -7,3 -10,4zm-1 7c0,-2 0,-3 0,-4 2,-1 4,-2 6,-3 6,-2 12,-3 18,-5 3,0 6,-1 8,-1 4,-1 8,-2 12,-2 1,-1 4,-4 6,-4 0,3 0,5 0,7 -6,1 -11,1 -17,2 -11,2 -23,4 -33,10zm-106 -81c0,0 0,-2 0,-3 0,0 1,0 2,1 0,1 -1,2 -2,2zm-6 -32c-1,-5 -3,-10 -3,-15 1,-1 3,3 4,4 0,3 1,9 -1,11zm26 4c-1,0 -3,0 -4,0 0,-1 -1,-2 -1,-2 0,-1 -1,-3 -2,-3 1,-1 1,-2 1,-4 -1,-3 -3,-6 -5,-9 -2,0 -4,7 -5,9 0,1 0,3 0,4 0,1 0,1 0,1 -1,1 -1,1 -1,2 -2,0 -4,-1 -6,-1 1,-4 2,-7 1,-11 -1,-2 -2,-4 -3,-6 1,-2 8,-1 10,-1 2,1 5,1 7,2 6,3 12,7 19,8 2,-1 3,-1 5,-1 -5,4 -12,3 -17,2 0,3 2,4 4,6 1,1 2,1 4,2 1,0 2,0 3,0 -2,2 -8,2 -10,2zm-11 -6c-2,-1 -2,-2 -2,-4 0,-1 1,-2 2,-3 0,0 2,2 2,3 1,2 0,3 -2,4zm-1 4c-1,0 -2,-1 -1,-2 1,0 2,0 4,-1 0,1 0,1 1,1 0,2 -2,2 -4,2zm1 11c-2,-1 -4,-2 -5,-3 -1,-3 0,-5 3,-6 2,0 3,0 5,0 2,2 2,2 2,5 0,1 -1,3 -3,3 -1,0 -2,1 -2,1zm0 4c-2,0 -3,0 -4,-1 0,0 0,0 0,-1 0,0 0,0 0,0 3,0 5,0 8,0 1,3 -3,1 -4,2zm-1 11c-3,-1 -10,-2 -7,-7 3,-3 9,-2 13,-2 2,1 3,1 4,3 0,1 0,1 0,2 -2,3 -6,4 -10,4zm-5 6c0,-1 1,-2 2,-4 3,0 5,0 8,0 1,1 1,3 2,4 -4,0 -8,0 -12,0zm-9 8c-1,-1 -1,-1 -1,-3 9,-4 21,-4 31,0 1,0 1,1 1,2 -1,2 -7,0 -9,0 -4,-1 -9,-1 -13,-1 -3,1 -6,1 -9,2zm-47 31c0,0 0,0 0,0 3,-2 6,-5 9,-7 4,-3 9,-6 13,-9 4,-2 8,-4 12,-7 5,-2 11,-4 16,-6 1,0 3,0 5,-1 5,0 11,0 16,1 6,1 11,2 16,5 1,0 2,0 3,1 5,3 10,6 15,9 7,5 13,9 20,13 -2,0 -4,0 -6,0 -11,-3 -23,-7 -34,-10 -8,-1 -17,-2 -25,-2 -5,1 -10,1 -15,1 -15,3 -30,9 -45,12zm-29 15c-4,-1 -7,-1 -11,-2 0,-4 -1,-8 -1,-12 4,1 5,2 7,5 4,0 7,0 10,0 18,-1 36,-6 54,-11 2,-1 5,-2 8,-2 3,-1 6,-1 9,-2 3,0 7,-1 10,-1 4,0 7,0 11,0 9,1 18,2 26,4 9,3 18,5 27,8 4,1 8,2 13,3 8,1 16,2 24,1 2,-3 4,-5 7,-5 0,4 0,8 0,12 -2,0 -4,0 -5,1 -13,1 -25,0 -38,-2 -3,-1 -6,-1 -9,-2 -11,-3 -23,-6 -34,-8 -3,0 -6,0 -9,0 -4,-1 -9,-1 -13,-1 -3,1 -7,1 -10,1 -16,3 -32,8 -48,11 -5,0 -10,1 -14,1 -5,0 -9,0 -14,1zm0 -15c-4,-1 -2,-7 0,-9 0,0 0,0 1,0 1,2 4,8 -1,9zm-1 4c0,0 -1,0 -2,-1 0,0 0,0 0,0 1,-1 1,-1 1,-1 1,0 3,0 4,0 0,0 1,1 1,2 -2,0 -3,0 -4,0zm-42 15c-1,0 -2,0 -4,0 0,-1 0,-1 0,-1 0,0 1,-1 1,-1 1,0 3,0 4,0 1,1 1,1 1,2 0,0 -1,0 -2,0zm-1 -4c-3,-2 -1,-5 1,-8 0,0 0,0 0,0 1,2 4,6 1,7 -1,0 -1,0 -2,1zm35 12c-3,-2 -6,-3 -10,-4 -5,-1 -10,-2 -15,-3 1,-2 3,-3 4,-4 2,-2 4,-3 6,-4 2,-1 3,-2 5,-3 2,0 3,0 5,-1 0,3 0,6 0,8 1,1 2,2 2,3 1,2 4,6 4,7 0,0 0,0 -1,1zm2 6c-3,-1 -6,-2 -9,-4 -6,-1 -13,-3 -19,-4 -4,0 -8,-1 -12,-1 -2,-1 -3,-2 -5,-3 15,0 29,3 43,8 1,0 2,0 2,1 1,1 1,2 1,3 0,0 0,0 -1,0zm2 7c-2,-1 -4,-2 -5,-2 -5,-2 -11,-4 -16,-5 -3,-1 -6,-2 -9,-2 -7,-1 -13,-2 -20,-2 0,-3 0,-5 0,-7 1,0 5,3 6,3 3,1 6,1 10,2 11,1 24,4 34,10 0,0 0,3 0,3zm87 194c-34,0 -68,0 -102,0 0,-18 0,-36 0,-53 5,0 11,0 16,0 1,-15 2,-30 4,-45 0,-1 0,-3 0,-4 -2,0 -4,-1 -3,-3 0,0 1,0 1,0 0,-3 -1,-7 -2,-10 -1,0 -1,0 -2,0 0,-4 0,-8 0,-12 -6,-2 -8,-9 -6,-16 -2,1 -6,2 -7,-1 0,0 1,-1 1,-1 -1,0 -2,-1 -3,-2 0,-1 0,-2 0,-3 -1,0 -2,0 -2,-2 0,-1 0,-2 0,-3 -4,-2 -6,-3 -8,-7 0,-2 0,-4 0,-5 -1,-1 -2,-1 -4,-1 -1,0 -2,0 -4,1 -1,-4 -2,-7 -2,-11 1,-2 1,-5 2,-7 -3,-4 -4,-11 -2,-16 1,0 1,0 1,0 13,1 26,5 37,11 0,-1 0,-3 1,-5 0,-3 -1,-6 -2,-9 -1,-4 -3,-9 -6,-13 0,0 0,-1 0,-1 6,1 12,1 17,1 9,0 18,-1 27,-3 11,-2 21,-5 31,-7 7,-1 14,-2 21,-3 12,0 24,1 36,4 8,1 16,3 24,5 3,1 6,2 9,2 5,1 10,1 16,2 4,0 8,0 12,0 3,-1 7,-1 10,-1 -2,3 -4,6 -5,9 -1,1 -1,3 -2,5 0,4 -2,9 0,14 10,-7 24,-10 37,-12 1,0 1,2 1,3 1,4 0,10 -2,13 0,3 1,5 2,7 0,2 0,3 0,5 -1,2 -2,4 -3,7 -1,-1 -2,-1 -2,-1 -2,0 -4,0 -5,0 0,3 0,5 -1,8 -1,0 -2,1 -2,2 -2,1 -4,3 -5,3 0,1 0,2 0,3 -1,1 -1,2 -3,2 0,1 1,2 1,3 -1,1 -2,1 -3,2 0,1 1,2 -1,3 -2,0 -3,0 -5,-1 1,5 1,9 -3,13 -1,1 -2,2 -3,2 0,4 0,8 0,12 -1,0 -1,0 -2,1 -1,3 -1,6 -2,9 0,1 1,1 1,3 -1,1 -2,1 -2,1 1,16 2,32 3,48 5,0 11,0 16,0 1,18 1,36 1,53 -41,1 -82,1 -122,1z"/>
   <path class="fil3" d="M306 85c-3,0 -6,2 -8,4 -2,2 -4,5 -4,8 0,3 2,6 4,8 2,2 5,3 8,3 3,0 6,-1 8,-3 2,-2 3,-5 3,-8 0,-3 -1,-6 -3,-8 -2,-2 -5,-4 -8,-4zm0 2c3,0 5,1 7,3 2,2 3,4 3,7 0,3 -1,5 -3,7 -2,2 -5,3 -7,3 -3,0 -5,-1 -7,-3 -2,-2 -3,-4 -3,-7 0,-3 1,-5 3,-7 2,-2 4,-3 7,-3zm-5 3l0 13 3 0 0 -5 2 0 3 5 3 0 -3 -6c2,0 3,-1 3,-3 0,-3 -2,-4 -6,-4l-5 0zm3 2l2 0c2,0 3,1 3,2 0,1 -1,2 -3,2l-2 0 0 -4z"/>
  </g>
 </g>
</svg>
