<svg width="280" height="42" version="1.1" viewBox="0 0 280 42" xmlns="http://www.w3.org/2000/svg">
	<g transform="matrix(.50125 0 0 .50565 -78.746 -135.41)">
		<path fill="#4C4338" d="m251.64 309.51v-15.347c7.2636 0.23431 11.364 3.2803 11.364 7.7322 0 4.3347-3.9832 7.2636-11.364 7.615m-1.523-18.51h-6.092c-1.8745 0-2.8117-0.11716-3.9832 1.6402-0.58577 0.93723-0.46861 2.8117-0.46861 3.8661 0.11715 1.6402 0.11715 3.1632 0.2343 4.8033 0.11716 3.1632 0.11716 6.3263 0.11716 9.4895 0 3.3975-0.11716 6.6778-0.11716 10.075 0 1.6402-0.11715 3.3975-0.2343 5.0376-0.11716 2.1088-0.46862 4.4519 2.2259 4.9205 0.70292 0.11716 1.6402 0 2.3431 0h8.6694c8.0836 0 13.707-0.46861 16.87-1.6402 5.2719-1.8745 7.8493-5.0376 7.8493-9.6066 0-5.0376-4.4519-8.6694-13.004-10.192 7.0292-1.523 10.544-4.6862 10.544-8.9037 0-4.1004-3.1632-7.0292-9.2552-8.6694-2.1088-0.46862-7.3807-0.82008-15.699-0.82008m1.523 36.786v-15.816c9.0209 0.46862 13.59 3.2803 13.59 7.8493 0 4.569-4.569 7.3807-13.356 7.9665z" stroke-width="1.1715"/>
		<path fill="#4C4338" d="m282.57 330.95-2.3431-1.8745-2.3431-1.7573c6.5606-8.6694 18.745-25.891 18.745-25.891l-3.3975-4.3347 4.9205-4.4519 4.569-4.3347s15.582 23.197 24.485 36.786c-1.1716 0.70292-3.1632 1.7573-4.9205 2.9288-2.1088 1.4058-4.1004 2.8117-5.5062 3.6318-6.3263-10.075-11.598-17.925-16.284-24.837-6.4435 7.9665-11.833 15.113-17.925 24.134" stroke-width="1.1715"/>
		<path fill="#4C4338" d="m342.79 313.72s-0.11716-13.59 0.11715-19.565c7.1464 0.82008 10.895 4.3347 10.895 9.841 0 5.5062-3.7489 8.9037-11.012 9.7238m-10.31 16.987c0.23431 0.11715 0.46861 0.11715 0.70292 0.11715 1.523 0.23431 10.192-0.11715 10.192-0.11715-0.35146-5.0376-0.46862-9.4895-0.58577-13.59v-0.46862h0.46862c14.996-0.23431 22.259-4.9205 22.259-13.59 0-4.9205-2.8117-8.6694-8.318-10.661-3.1632-1.1715-8.7866-1.4058-16.987-1.4058h-4.6862c-0.82008 0-1.7573-0.11716-2.5774 0-3.7489 0.58577-2.4602 5.7406-2.3431 8.318 0.11715 3.8661 0.23431 7.615 0.23431 11.481 0 3.5146-0.11716 6.9121-0.23431 10.427 0 1.7573-0.11715 3.6318-0.23431 5.3891 0 1.9916-0.23431 3.3975 2.1088 4.1004" stroke-width="1.1715"/>
		<path fill="#4C4338" d="m383.09 305.76c-2.5774-6.795-1.9916-10.544 2.9289-12.536 0.82008-0.35147 1.6402-0.58577 2.5774-0.82008l-1.8745-2.3431c-1.8745 0-4.4519 0.35147-6.6778 0.93724-10.895 3.3975-11.364 11.012-7.8493 20.385 0.46862 1.4058 1.7573 3.6318 2.9289 6.5606 2.6945 6.9121 0.58577 8.7866-4.2176 10.661-0.70292 0.23431-1.4058 0.46862-2.1088 0.58577l1.7573 2.4602c1.9916-0.11715 4.2176-0.46861 6.4435-1.4058 4.4519-1.7573 8.2008-3.7489 9.7238-7.8493 1.1716-3.2803-0.35146-7.9665-1.9916-12.301-0.70292-1.9916-1.2887-3.5146-1.6402-4.3347" stroke-width="1.1715"/>
		<path fill="#CE3829" d="m306.59 324.03c0 3.6318-3.046 6.5606-6.6778 6.5606-3.7489 0-6.6778-2.9289-6.6778-6.5606 0-3.5146 3.046-6.4435 6.6778-6.4435 3.7489-0.11716 6.6778 2.9288 6.6778 6.4435" stroke-width="1.1715"/>
		<path fill="#CE3829" d="m502.82 290.29h-0.35146c-0.11715 0.11716-18.042 38.895-18.276 39.247h4.569c0.11715-0.11716 4.3347-9.841 4.3347-9.841h18.745s4.3347 9.6066 4.4519 9.841h4.6862c-0.11716-0.35147-18.042-39.13-18.159-39.247m-8.0836 26.008 7.7322-17.222 0.11715-0.35146 7.7322 17.456z" stroke-width="1.1715"/>
		<rect fill="#CE3829" x="573.35" y="290.53" width="4.2176" height="39.012" stroke-width="1.1715"/>
		<rect fill="#CE3829" x="636.5" y="290.53" width="4.2176" height="39.012" stroke-width="1.1715"/>
		<polygon fill="#CE3829" transform="matrix(1.1715 0 0 1.1715 -26.949 -45.939)" points="542.3 291.1 554.2 291.1 554.2 287.8 525.5 287.8 526 287.8 526 291.1 538.5 291.1 538.5 320.5 542.3 320.5"/>
		<polygon fill="#CE3829" transform="matrix(1.1715 0 0 1.1715 -26.949 -45.939)" points="424.3 301.6 405.4 301.6 405.4 287.8 401.7 287.8 401.7 320.5 405.4 320.5 405.4 304.9 424.3 304.9 424.3 320.5 428 320.5 428 287.8 424.3 287.8"/>
		<polygon fill="#CE3829" transform="matrix(1.1715 0 0 1.1715 -26.949 -45.939)" points="603.5 290.9 603.5 287.8 584.7 287.8 584.7 320.5 604 320.5 604 317.2 588.4 317.2 588.4 305 602.3 305 602.3 301.9 588.4 301.9 588.4 290.9"/>
		<path fill="#CE3829" d="m558.7 329.54c-0.35146-0.46862-14.293-16.402-14.293-16.402h0.23431c6.2092-1.0544 10.192-5.2719 10.192-10.778 0-7.2636-5.7406-11.13-16.636-11.13h-8.2008v38.309h4.3347v-34.795h3.3975c8.9037 0 12.77 2.3431 12.77 7.7322 0 4.9205-3.7489 7.7322-10.895 8.0836-1.523 0.11716-2.9289 0-2.9289 0s16.402 18.979 16.519 19.096z" stroke-width="1.1715"/>
		<path fill="#CE3829" d="m706.67 308.34-2.8117-1.1715c-5.2719-2.2259-7.4979-4.569-7.4979-7.7322 0-3.5146 2.8117-5.8577 7.0292-5.8577 3.046 0 6.092 1.1715 9.3723 3.5146v-4.569c-2.8117-1.6402-5.9749-2.4602-9.138-2.4602-6.6778 0-11.247 3.9832-11.247 9.7238 0 4.569 2.9289 8.2008 8.6694 10.778l2.6946 1.1715c5.0376 2.2259 7.8493 4.3347 7.8493 8.318 0 4.2176-3.3975 7.0292-8.4351 7.0292-2.3431 0-4.6862-0.58577-7.7322-2.1088l-3.1632 3.1632c3.8661 1.8745 7.4979 2.8117 11.012 2.8117 7.3807 0 12.418-4.4519 12.418-10.895 0.23431-5.0376-2.9288-9.0209-9.0209-11.715" stroke-width="1.1715"/>
		<path fill="#CE3829" d="m432.3 322.51c-3.8661 2.9289-7.9665 4.2176-11.95 4.2176-8.7866 0-15.816-6.9121-15.816-16.402 0-9.6066 7.1464-16.636 15.933-16.636 3.8661 0 8.318 1.523 11.715 4.2176v-4.6862c-3.5146-2.3431-7.8493-3.5146-11.833-3.5146-11.247 0-20.385 8.7866-20.385 20.502 0 6.6778 2.6946 12.418 7.4979 16.284 3.3975 2.6945 8.2008 4.1004 12.653 4.1004 4.1004 0 8.5523-1.1716 11.95-3.5146v-4.569z" stroke-width="1.1715"/>
		<path fill="#4C4338" d="m181.25 343.17c-11.55-2.3333-24.15-19.483-24.15-19.483 4.9 15.05 24.266 32.666 42.116 25.55 17.85-7.2333 19.25-24.733 19.25-24.733-11.9 19.133-25.666 21.117-37.216 18.667z" stroke-width="1.1667"/>
		<path fill="#901A1E" fill-rule="evenodd" clip-rule="evenodd" d="m209.37 329.52c6.1833-8.05 8.6333-14.817 7.9333-21-1.75-16.567-14.233-22.05-6.1833-33.016-7.2333 4.55-11.083 10.617-10.85 17.85 0.35 12.95 13.767 24.383 7.35 34.183z" stroke-width="1.1667"/>
		<path fill="#CE3829" fill-rule="evenodd" clip-rule="evenodd" d="m197.93 338.15c12.95-7 18.2-15.283 16.917-27.65-1.4-13.533-20.533-25.783-13.65-42.7-16.567 8.9833-15.633 24.383-13.767 31.966 3.6166 14.933 15.867 23.916 10.5 38.383z" stroke-width="1.1667"/>
		<path fill="#FFFFFF" d="m201.9 332.55s8.6333-5.6 7.7-12.483c-0.93333-6.8833-6.0666-15.517-6.3-15.867-0.23333-0.34999-2.5666-3.9666-1.75-0.34999 0.11667 0.46665 2.45 10.967 2.6833 13.767 0.35 2.8 0.93332 9.3333-2.3333 14.933z" stroke-width="1.1667"/>
	</g>
</svg>
